<svg width="25" height="24" viewBox="0 0 25 24" fill="none" xmlns="http://www.w3.org/2000/svg">
<path d="M23.5515 10.0996L22.4281 14.8909C21.4653 19.0289 19.5625 20.7024 15.9862 20.3586C15.4131 20.3127 14.7941 20.2096 14.1292 20.0491L12.2035 19.5906C7.42365 18.4558 5.94498 16.0945 7.06831 11.3032L8.19164 6.50036C8.42089 5.52604 8.69599 4.67781 9.03987 3.97859C10.381 1.20466 12.662 0.45959 16.4905 1.36513L18.4048 1.81217C23.2076 2.9355 24.6748 5.30825 23.5515 10.0996Z" stroke="#878A8C" stroke-width="1.71938" stroke-linecap="round" stroke-linejoin="round"/>
<path d="M15.9862 20.3587C15.2755 20.8401 14.3814 21.2413 13.2925 21.5966L11.4814 22.1927C6.93075 23.6599 4.53507 22.4334 3.0564 17.8828L1.58919 13.3551C0.121983 8.80443 1.33701 6.3973 5.88765 4.93009L7.69873 4.33404C8.16869 4.18502 8.61574 4.05894 9.03985 3.9787C8.69597 4.67791 8.42087 5.52614 8.19162 6.50046L7.06829 11.3033C5.94496 16.0946 7.42364 18.4559 12.2035 19.5907L14.1293 20.0492C14.7941 20.2097 15.4131 20.3128 15.9862 20.3587Z" stroke="#878A8C" stroke-width="1.71938" stroke-linecap="round" stroke-linejoin="round"/>
</svg>
