<svg id="visual" viewBox="0 0 960 540" width="960" height="540" xmlns="http://www.w3.org/2000/svg" xmlns:xlink="http://www.w3.org/1999/xlink" version="1.1"><rect x="0" y="0" width="960" height="540" fill="#ffffff"></rect><defs><linearGradient id="grad1_0" x1="43.8%" y1="0%" x2="100%" y2="100%"><stop offset="14.444444444444446%" stop-color="#ffffff" stop-opacity="1"></stop><stop offset="85.55555555555554%" stop-color="#ffffff" stop-opacity="1"></stop></linearGradient></defs><defs><linearGradient id="grad2_0" x1="0%" y1="0%" x2="56.3%" y2="100%"><stop offset="14.444444444444446%" stop-color="#ffffff" stop-opacity="1"></stop><stop offset="85.55555555555554%" stop-color="#ffffff" stop-opacity="1"></stop></linearGradient></defs><g transform="translate(960, 0)"><path d="M0 486C-69.8 485 -139.5 484 -186 449C-232.5 414 -255.7 345.1 -298.4 298.4C-341.1 251.7 -403.4 227.4 -437.9 181.4C-472.4 135.4 -479.2 67.7 -486 0L0 0Z" fill="#6B7FF2"></path></g><g transform="translate(0, 540)"><path d="M0 -486C60.1 -473.1 120.1 -460.2 182.2 -439.8C244.2 -419.4 308.3 -391.4 343.7 -343.7C379 -295.9 385.7 -228.2 404.7 -167.6C423.6 -107 454.8 -53.5 486 0L0 0Z" fill="#6B7FF2"></path></g></svg>