<svg width="24" height="24" viewBox="0 0 24 24" fill="none" xmlns="http://www.w3.org/2000/svg">
<path d="M4.34363 9.91634H6.57271C8.80179 9.91634 9.91634 8.80179 9.91634 6.57271V4.34363C9.91634 2.11454 8.80179 1 6.57271 1H4.34363C2.11454 1 1 2.11454 1 4.34363V6.57271C1 8.80179 2.11454 9.91634 4.34363 9.91634Z" stroke="#878A8C" stroke-miterlimit="10" stroke-linecap="round" stroke-linejoin="round"/>
<path d="M17.7181 9.91634H19.9472C22.1763 9.91634 23.2908 8.80179 23.2908 6.57271V4.34363C23.2908 2.11454 22.1763 1 19.9472 1H17.7181C15.489 1 14.3745 2.11454 14.3745 4.34363V6.57271C14.3745 8.80179 15.489 9.91634 17.7181 9.91634Z" stroke="#878A8C" stroke-miterlimit="10" stroke-linecap="round" stroke-linejoin="round"/>
<path d="M17.7181 23.2908H19.9472C22.1763 23.2908 23.2908 22.1763 23.2908 19.9472V17.7181C23.2908 15.4891 22.1763 14.3745 19.9472 14.3745H17.7181C15.489 14.3745 14.3745 15.4891 14.3745 17.7181V19.9472C14.3745 22.1763 15.489 23.2908 17.7181 23.2908Z" stroke="#878A8C" stroke-miterlimit="10" stroke-linecap="round" stroke-linejoin="round"/>
<path d="M4.34363 23.2908H6.57271C8.80179 23.2908 9.91634 22.1763 9.91634 19.9472V17.7181C9.91634 15.4891 8.80179 14.3745 6.57271 14.3745H4.34363C2.11454 14.3745 1 15.4891 1 17.7181V19.9472C1 22.1763 2.11454 23.2908 4.34363 23.2908Z" stroke="#878A8C" stroke-miterlimit="10" stroke-linecap="round" stroke-linejoin="round"/>
</svg>
