<svg width="34" height="34" viewBox="0 0 34 34" fill="none" xmlns="http://www.w3.org/2000/svg">
<path d="M16.9509 31.0767C20.8516 31.0767 24.3831 29.4956 26.9394 26.9394C29.4956 24.3831 31.0767 20.8516 31.0767 16.9509C31.0767 13.0503 29.4956 9.51881 26.9394 6.96251C24.3831 4.40625 20.8516 2.82516 16.9509 2.82516C13.0503 2.82516 9.51881 4.40625 6.96251 6.96251C4.40625 9.51881 2.82516 13.0503 2.82516 16.9509C2.82516 20.8516 4.40625 24.3831 6.96251 26.9394C9.51881 29.4956 13.0503 31.0767 16.9509 31.0767Z" stroke="white" stroke-linejoin="round"/>
<path fill-rule="evenodd" clip-rule="evenodd" d="M16.6852 7.76917C17.5136 7.76917 18.1852 8.44075 18.1852 9.26917C18.1852 10.0976 17.5136 10.7692 16.6852 10.7692C15.8568 10.7692 15.1852 10.0976 15.1852 9.26917C15.1852 8.44075 15.8568 7.76917 16.6852 7.76917Z" fill="white"/>
<path d="M17.3041 24.0138V14.1258H16.5978H15.8915" stroke="white" stroke-width="2" stroke-linecap="round" stroke-linejoin="round"/>
<path d="M14.8321 24.0138H19.7761" stroke="white" stroke-width="2" stroke-linecap="round" stroke-linejoin="round"/>
</svg>
