<svg width="1236" height="644" viewBox="0 0 1236 644" fill="none" xmlns="http://www.w3.org/2000/svg">
<g clip-path="url(#clip0_42_251)">
<path d="M0 474.175L17.1667 479.231C34.3333 484.383 68.6667 494.497 103 496.786C137.333 498.981 171.667 493.256 206 491.825C240.333 490.394 274.667 493.256 309 492.779C343.333 492.302 377.667 488.486 412 489.249C446.333 490.108 480.667 495.451 515 501.366C549.333 507.281 583.667 513.578 618 514.532C652.333 515.486 686.667 511.098 721 503.274C755.333 495.451 789.667 484.383 824 478.468C858.333 472.553 892.667 471.98 927 479.231C961.333 486.578 995.667 501.843 1030 504.896C1064.33 507.854 1098.67 498.695 1133 500.603C1167.33 502.511 1201.67 515.486 1218.83 522.069L1236 528.557V644.954H1218.83C1201.67 644.954 1167.33 644.954 1133 644.954C1098.67 644.954 1064.33 644.954 1030 644.954C995.667 644.954 961.333 644.954 927 644.954C892.667 644.954 858.333 644.954 824 644.954C789.667 644.954 755.333 644.954 721 644.954C686.667 644.954 652.333 644.954 618 644.954C583.667 644.954 549.333 644.954 515 644.954C480.667 644.954 446.333 644.954 412 644.954C377.667 644.954 343.333 644.954 309 644.954C274.667 644.954 240.333 644.954 206 644.954C171.667 644.954 137.333 644.954 103 644.954C68.6667 644.954 34.3333 644.954 17.1667 644.954H0V474.175Z" fill="#6B7FF2"/>
<path d="M0 507.567L17.1667 508.521C34.3333 509.476 68.6667 511.384 103 517.394C137.333 523.5 171.667 533.614 206 533.614C240.333 533.614 274.667 523.5 309 523.787C343.333 524.073 377.667 534.949 412 539.72C446.333 544.49 480.667 543.154 515 544.967C549.333 546.684 583.667 551.455 618 546.684C652.333 541.914 686.667 527.603 721 520.161C755.333 512.624 789.667 512.052 824 520.161C858.333 528.271 892.667 545.063 927 551.455C961.333 557.847 995.667 553.649 1030 545.54C1064.33 537.43 1098.67 525.409 1133 526.84C1167.33 528.271 1201.67 543.154 1218.83 550.692L1236 558.133V644.954H1218.83C1201.67 644.954 1167.33 644.954 1133 644.954C1098.67 644.954 1064.33 644.954 1030 644.954C995.667 644.954 961.333 644.954 927 644.954C892.667 644.954 858.333 644.954 824 644.954C789.667 644.954 755.333 644.954 721 644.954C686.667 644.954 652.333 644.954 618 644.954C583.667 644.954 549.333 644.954 515 644.954C480.667 644.954 446.333 644.954 412 644.954C377.667 644.954 343.333 644.954 309 644.954C274.667 644.954 240.333 644.954 206 644.954C171.667 644.954 137.333 644.954 103 644.954C68.6667 644.954 34.3333 644.954 17.1667 644.954H0V507.567Z" fill="#5667BD"/>
<path d="M0 591.526L17.1667 585.134C34.3333 578.837 68.6667 566.052 103 564.335C137.333 562.617 171.667 571.777 206 577.883C240.333 583.893 274.667 586.756 309 581.222C343.333 575.593 377.667 561.663 412 556.511C446.333 551.455 480.667 555.271 515 560.041C549.333 564.812 583.667 570.536 618 574.162C652.333 577.883 686.667 579.409 721 576.07C755.333 572.731 789.667 564.526 824 566.72C858.333 568.914 892.667 581.699 927 582.462C961.333 583.225 995.667 572.158 1030 565.575C1064.33 559.087 1098.67 557.179 1133 556.702C1167.33 556.225 1201.67 557.179 1218.83 557.656L1236 558.133V644.954H1218.83C1201.67 644.954 1167.33 644.954 1133 644.954C1098.67 644.954 1064.33 644.954 1030 644.954C995.667 644.954 961.333 644.954 927 644.954C892.667 644.954 858.333 644.954 824 644.954C789.667 644.954 755.333 644.954 721 644.954C686.667 644.954 652.333 644.954 618 644.954C583.667 644.954 549.333 644.954 515 644.954C480.667 644.954 446.333 644.954 412 644.954C377.667 644.954 343.333 644.954 309 644.954C274.667 644.954 240.333 644.954 206 644.954C171.667 644.954 137.333 644.954 103 644.954C68.6667 644.954 34.3333 644.954 17.1667 644.954H0V591.526Z" fill="#434F8A"/>
<path d="M0 614.424L17.1667 610.798C34.3333 607.077 68.6667 599.826 103 595.056C137.333 590.286 171.667 587.996 206 588.377C240.333 588.664 274.667 591.526 309 592.003C343.333 592.48 377.667 590.572 412 594.674C446.333 598.872 480.667 608.985 515 615.187C549.333 621.388 583.667 623.678 618 624.632C652.333 625.586 686.667 625.205 721 623.01C755.333 620.816 789.667 616.618 824 610.894C858.333 605.169 892.667 597.918 927 593.148C961.333 588.377 995.667 586.088 1030 589.427C1064.33 592.766 1098.67 601.734 1133 608.222C1167.33 614.71 1201.67 618.908 1218.83 620.911L1236 623.01V644.954H1218.83C1201.67 644.954 1167.33 644.954 1133 644.954C1098.67 644.954 1064.33 644.954 1030 644.954C995.667 644.954 961.333 644.954 927 644.954C892.667 644.954 858.333 644.954 824 644.954C789.667 644.954 755.333 644.954 721 644.954C686.667 644.954 652.333 644.954 618 644.954C583.667 644.954 549.333 644.954 515 644.954C480.667 644.954 446.333 644.954 412 644.954C377.667 644.954 343.333 644.954 309 644.954C274.667 644.954 240.333 644.954 206 644.954C171.667 644.954 137.333 644.954 103 644.954C68.6667 644.954 34.3333 644.954 17.1667 644.954H0V614.424Z" fill="#323859"/>
</g>
<defs>
<clipPath id="clip0_42_251">
<rect width="1236" height="644" fill="white"/>
</clipPath>
</defs>
</svg>
