<svg width="23" height="23" viewBox="0 0 23 23" fill="none" xmlns="http://www.w3.org/2000/svg">
<path d="M14.6679 22.3359H14.5266C9.69834 22.3359 7.37123 20.4329 6.96888 16.1702C6.92538 15.7243 7.25161 15.322 7.70834 15.2785C8.14331 15.235 8.55654 15.5721 8.60003 16.0179C8.91539 19.4325 10.5248 20.7048 14.5374 20.7048H14.6788C19.1047 20.7048 20.6706 19.1389 20.6706 14.713V7.62292C20.6706 3.19706 19.1047 1.63115 14.6788 1.63115H14.5374C10.503 1.63115 8.89364 2.9252 8.60003 6.40499C8.54566 6.85084 8.16506 7.18795 7.70834 7.14445C7.25161 7.11183 6.92538 6.70947 6.95801 6.26363C7.32774 1.93563 9.66572 0 14.5266 0H14.6679C20.0072 0 22.2908 2.28361 22.2908 7.62292V14.713C22.2908 20.0523 20.0072 22.3359 14.6679 22.3359Z" fill="#878A8C"/>
<path d="M14.4054 11.9836H2.03045C1.5846 11.9836 1.21487 11.6138 1.21487 11.168C1.21487 10.7221 1.5846 10.3524 2.03045 10.3524H14.4054C14.8513 10.3524 15.221 10.7221 15.221 11.168C15.221 11.6138 14.8513 11.9836 14.4054 11.9836Z" fill="#878A8C"/>
<path d="M4.45577 15.6266C4.24915 15.6266 4.04254 15.5505 3.87942 15.3873L0.236517 11.7444C-0.078839 11.4291 -0.078839 10.9071 0.236517 10.5917L3.87942 6.94883C4.19478 6.63347 4.71675 6.63347 5.03211 6.94883C5.34746 7.26418 5.34746 7.78615 5.03211 8.10151L1.96554 11.1681L5.03211 14.2347C5.34746 14.55 5.34746 15.072 5.03211 15.3873C4.87986 15.5505 4.66238 15.6266 4.45577 15.6266Z" fill="#878A8C"/>
</svg>
