<svg xmlns="http://www.w3.org/2000/svg" version="1.1" xmlns:xlink="http://www.w3.org/1999/xlink" xmlns:svgjs="http://svgjs.dev/svgjs" width="2000" height="1999" viewBox="0 0 2000 1999"><g transform="matrix(1,0,0,1,-0.431486880466764,-0.4312711370263287)"><svg viewBox="0 0 343 343" data-background-color="#ffffff" preserveAspectRatio="xMidYMid meet" height="1999" width="2000" xmlns="http://www.w3.org/2000/svg" xmlns:xlink="http://www.w3.org/1999/xlink"><g id="tight-bounds" transform="matrix(1,0,0,1,0.0740000000000407,0.07400000000001228)"><svg viewBox="0 0 342.85155851775386 342.85155851775386" height="342.85155851775386" width="342.85155851775386"><g><svg></svg></g><g><svg viewBox="0 0 342.85155851775386 342.85155851775386" height="342.85155851775386" width="342.85155851775386"><g><path d="M0 171.426c0-94.676 76.75-171.426 171.426-171.426 94.676 0 171.426 76.75 171.426 171.426 0 94.676-76.75 171.426-171.426 171.426-94.676 0-171.426-76.75-171.426-171.426zM171.426 339.852c93.019 0 168.426-75.407 168.426-168.426 0-93.019-75.407-168.426-168.426-168.427-93.019 0-168.426 75.407-168.427 168.427 0 93.019 75.407 168.426 168.427 168.426z" data-fill-palette-color="tertiary" fill="#6b7ff2" stroke="transparent"></path><ellipse rx="164.56874808852186" ry="164.56874808852186" cx="171.42577925887693" cy="171.42577925887693" fill="#6b7ff2" stroke="transparent" stroke-width="0" fill-opacity="1" data-fill-palette-color="tertiary"></ellipse></g><g transform="matrix(1,0,0,1,64.84655864529837,107.98617655945922)"><svg viewBox="0 0 213.1584412271571 126.87920539883541" height="126.87920539883541" width="213.1584412271571"><g><svg viewBox="0 0 213.1584412271571 126.87920539883541" height="126.87920539883541" width="213.1584412271571"><g><svg viewBox="0 0 213.1584412271571 126.87920539883541" height="126.87920539883541" width="213.1584412271571"><g transform="matrix(1,0,0,1,0,76.90966362116575)"><svg viewBox="0 0 213.1584412271571 49.96954177766966" height="49.96954177766966" width="213.1584412271571"><g id="textblocktransform"><svg viewBox="0 0 213.1584412271571 49.96954177766966" height="49.96954177766966" width="213.1584412271571" id="textblock"><g><svg viewBox="0 0 213.1584412271571 33.259445621013015" height="33.259445621013015" width="213.1584412271571"><g transform="matrix(1,0,0,1,0,0)"><svg width="213.1584412271571" viewBox="-0.4000000059604645 -34.29999923706055 221.72999572753906 34.599998474121094" height="33.259445621013015" data-palette-color="#ffffff"><path d="M29.55-33.85L16.9 0 12.25 0-0.4-33.85 5.95-33.85 10.15-21.75Q11.75-17.05 12.9-13.48 14.05-9.9 14.65-8L14.65-8Q15.2-9.9 16.32-13.38 17.45-16.85 19.15-21.65L19.15-21.65 23.5-33.85 29.55-33.85ZM32.6 0L32.6-33.85 38.55-33.85 38.55 0 32.6 0ZM70.15-13L64.55 0 60.34 0 54.7-12.85Q54.45-13.4 54.07-14.35 53.7-15.3 53.25-16.45 52.8-17.6 52.3-18.88 51.8-20.15 51.34-21.45L51.34-21.45Q51.34-20.15 51.32-18.88 51.3-17.6 51.25-16.48 51.2-15.35 51.17-14.48 51.15-13.6 51.15-13.1L51.15-13.1 50.65 0 45.05 0 47.05-33.95 51.7-33.95 60.25-12.75Q60.7-11.6 61.27-10.25 61.84-8.9 62.34-7.6L62.34-7.6Q62.84-8.9 63.4-10.23 63.95-11.55 64.45-12.75L64.45-12.75 73.05-33.95 77.59-33.95 79.59 0 74.05 0 73.5-12.95Q73.45-14.2 73.37-16.53 73.3-18.85 73.25-21.25L73.25-21.25Q72.8-20 72.32-18.75 71.84-17.5 71.45-16.4 71.05-15.3 70.7-14.4 70.34-13.5 70.15-13L70.15-13ZM106.24-16.15L106.09-33.85 112.04-33.85 112.04 0.05 107.09 0.05 95.69-17.75Q94.74-19.2 93.62-21.03 92.49-22.85 91.49-24.4L91.49-24.4Q91.64-22.8 91.77-21.05 91.89-19.3 91.89-17.7L91.89-17.7 92.04 0 86.09 0 86.09-33.95 90.74-33.95 102.49-16.35Q103.49-14.9 104.52-13.28 105.54-11.65 106.54-10.15L106.54-10.15Q106.44-11.75 106.34-13.38 106.24-15 106.24-16.15L106.24-16.15ZM132.59-34.3Q136.34-34.3 138.99-33.1 141.64-31.9 143.37-29.7 145.09-27.5 145.89-24.33 146.69-21.15 146.69-17.2L146.69-17.2Q146.69-13.3 145.81-10.08 144.94-6.85 143.12-4.55 141.29-2.25 138.52-0.98 135.74 0.3 131.94 0.3L131.94 0.3Q128.19 0.3 125.52-0.83 122.84-1.95 121.12-4.13 119.39-6.3 118.59-9.4 117.79-12.5 117.79-16.5L117.79-16.5Q117.79-20.4 118.67-23.68 119.54-26.95 121.37-29.33 123.19-31.7 125.99-33 128.79-34.3 132.59-34.3L132.59-34.3ZM131.89-29.7Q129.69-29.7 128.24-28.73 126.79-27.75 125.89-26.05 124.99-24.35 124.62-22.05 124.24-19.75 124.24-17.05L124.24-17.05Q124.24-14.5 124.59-12.2 124.94-9.9 125.87-8.15 126.79-6.4 128.42-5.35 130.04-4.3 132.64-4.3L132.64-4.3Q134.79-4.3 136.27-5.25 137.74-6.2 138.64-7.85 139.54-9.5 139.92-11.78 140.29-14.05 140.29-16.7L140.29-16.7Q140.29-19.25 139.94-21.6 139.59-23.95 138.67-25.75 137.74-27.55 136.12-28.63 134.49-29.7 131.89-29.7L131.89-29.7ZM147.94-33.85L171.54-33.85 170.79-29.35 162.39-29.35 162.39 0 156.49 0 156.49-29.35 147.94-29.35 147.94-33.85ZM175.59 0L175.59-33.85 195.69-33.85 195.69-29.35 181.53-29.35 181.53-19.9 193.19-19.9 192.44-15.35 181.53-15.35 181.53-4.5 196.44-4.5 196.44 0 175.59 0ZM210.98-34.3L210.98-34.3Q212.73-34.3 214.33-33.98 215.93-33.65 217.26-33.23 218.58-32.8 219.51-32.35 220.43-31.9 220.78-31.65L220.78-31.65 218.33-27.35 217.68-27.7Q217.03-28.05 215.98-28.5 214.93-28.95 213.68-29.3 212.43-29.65 211.28-29.65L211.28-29.65Q209.48-29.65 208.16-28.8 206.83-27.95 206.83-26.15L206.83-26.15Q206.83-23.9 208.28-22.48 209.73-21.05 212.83-19.85L212.83-19.85Q214.83-19.05 216.41-18.18 217.98-17.3 219.08-16.15 220.18-15 220.76-13.5 221.33-12 221.33-9.9L221.33-9.9Q221.33-8 220.61-6.15 219.88-4.3 218.46-2.88 217.03-1.45 214.93-0.58 212.83 0.3 210.08 0.3L210.08 0.3Q208.13 0.3 206.38-0.1 204.63-0.5 203.21-1.03 201.78-1.55 200.76-2.1 199.73-2.65 199.23-2.95L199.23-2.95 201.33-7.55 202.23-7.05Q203.13-6.55 204.43-5.95 205.73-5.35 207.18-4.85 208.63-4.35 209.68-4.35L209.68-4.35Q212.33-4.35 213.63-5.65 214.93-6.95 214.93-9.3L214.93-9.3Q214.93-10.4 214.58-11.23 214.23-12.05 213.58-12.65 212.93-13.25 212.01-13.73 211.08-14.2 209.93-14.65L209.93-14.65Q207.68-15.6 205.91-16.55 204.13-17.5 202.88-18.73 201.63-19.95 200.98-21.53 200.33-23.1 200.33-25.3L200.33-25.3Q200.33-27.15 201.13-28.78 201.93-30.4 203.33-31.63 204.73-32.85 206.68-33.58 208.63-34.3 210.98-34.3Z" opacity="1" transform="matrix(1,0,0,1,0,0)" fill="#ffffff" class="wordmark-text-0" data-fill-palette-color="quaternary" id="text-0"></path></svg></g></svg></g><g transform="matrix(1,0,0,1,0,41.11120250543928)"><svg viewBox="0 0 213.1584412271571 8.858339272230381" height="8.858339272230381" width="213.1584412271571"><g transform="matrix(1,0,0,1,0,0)"><svg width="213.1584412271571" viewBox="4.25 -35.04999923706055 858.9600219726562 35.70000076293945" height="8.858339272230381" data-palette-color="#ffffff"><path d="M8.9 0L4.25 0 4.25-34.4 20.95-34.4 20.45-30.8 8.9-30.8 8.9-18.8 18.9-18.8 18.9-15.2 8.9-15.2 8.9 0ZM48.2 0L43.05 0 35.65-14.65 35.35-14.65 30.8-14.65 30.8 0 26.15 0 26.15-34.4 34.2-34.4Q46.5-34.4 46.5-24.7L46.5-24.7Q46.5-21.3 44.85-18.95 43.2-16.6 40-15.5L40-15.5 48.2 0ZM34.55-18.2Q38.15-18.2 39.9-19.78 41.65-21.35 41.65-24.7L41.65-24.7Q41.65-27.85 39.87-29.35 38.1-30.85 34.1-30.85L34.1-30.85 30.8-30.85 30.8-18.2 34.55-18.2ZM53.4-34.4L70.5-34.4 69.95-30.8 58.05-30.8 58.05-19.45 68.4-19.45 68.4-15.85 58.05-15.85 58.05-3.65 70.65-3.65 70.65 0 53.4 0 53.4-34.4ZM76.84-34.4L93.94-34.4 93.39-30.8 81.49-30.8 81.49-19.45 91.84-19.45 91.84-15.85 81.49-15.85 81.49-3.65 94.09-3.65 94.09 0 76.84 0 76.84-34.4ZM133.89-34.4L133.89 0 127.89 0 115.64-29.55Q116.24-22.95 116.24-16.7L116.24-16.7 116.24 0 112.04 0 112.04-34.4 117.99-34.4 130.29-4.8Q130.09-6.55 129.86-9.6 129.64-12.65 129.64-15.65L129.64-15.65 129.64-34.4 133.89-34.4ZM153.84-35.05Q159.99-35.05 163.51-30.53 167.04-26 167.04-17.2L167.04-17.2Q167.04-8.55 163.54-3.95 160.04 0.65 153.84 0.65L153.84 0.65Q147.69 0.65 144.16-3.88 140.64-8.4 140.64-17.15L140.64-17.15Q140.64-22.9 142.26-26.93 143.89-30.95 146.86-33 149.84-35.05 153.84-35.05L153.84-35.05ZM153.84-31.35Q145.54-31.35 145.54-17.15L145.54-17.15Q145.54-3.1 153.84-3.1L153.84-3.1Q157.94-3.1 160.04-6.45 162.14-9.8 162.14-17.2L162.14-17.2Q162.14-24.55 160.01-27.95 157.89-31.35 153.84-31.35L153.84-31.35ZM170.08-34.4L192.43-34.4 191.88-30.6 183.43-30.6 183.43 0 178.78 0 178.78-30.6 170.08-30.6 170.08-34.4ZM196.93-34.4L214.03-34.4 213.48-30.8 201.58-30.8 201.58-19.45 211.93-19.45 211.93-15.85 201.58-15.85 201.58-3.65 214.18-3.65 214.18 0 196.93 0 196.93-34.4ZM228.43-34.4L250.78-34.4 250.23-30.6 241.78-30.6 241.78 0 237.13 0 237.13-30.6 228.43-30.6 228.43-34.4ZM276.97 0L272.17 0 269.87-8.75 258.32-8.75 256.02 0 251.37 0 261.32-34.4 267.02-34.4 276.97 0ZM264.12-30.7L259.27-12.4 268.92-12.4 264.12-30.7ZM281.57-34.4L286.22-34.4 286.22 0 281.57 0 281.57-34.4ZM298.17-34.4L303.12-34.4 291.47-18.7 303.92 0 298.57 0 286.42-18.4 298.17-34.4ZM308.02-34.4L312.67-34.4 312.67 0 308.02 0 308.02-34.4ZM342.97-34.4L342.97 0 336.97 0 324.72-29.55Q325.32-22.95 325.32-16.7L325.32-16.7 325.32 0 321.12 0 321.12-34.4 327.07-34.4 339.37-4.8Q339.17-6.55 338.94-9.6 338.72-12.65 338.72-15.65L338.72-15.65 338.72-34.4 342.97-34.4ZM363.41-35.05Q366.31-35.05 368.49-34.13 370.66-33.2 372.76-31.3L372.76-31.3 370.26-28.7Q368.56-30.1 367.01-30.73 365.46-31.35 363.51-31.35L363.51-31.35Q359.61-31.35 357.11-28.03 354.61-24.7 354.61-17.25L354.61-17.25Q354.61-9.65 356.71-6.38 358.81-3.1 363.01-3.1L363.01-3.1Q366.11-3.1 368.61-4.6L368.61-4.6 368.61-15.35 363.36-15.35 362.86-19 373.11-19 373.11-2.45Q368.36 0.65 363.01 0.65L363.01 0.65Q356.61 0.65 353.16-3.83 349.71-8.3 349.71-17.3L349.71-17.3Q349.71-23.1 351.56-27.1 353.41-31.1 356.54-33.08 359.66-35.05 363.41-35.05L363.41-35.05ZM413.56 0L408.76 0 406.46-8.75 394.91-8.75 392.61 0 387.96 0 397.91-34.4 403.61-34.4 413.56 0ZM400.71-30.7L395.86-12.4 405.51-12.4 400.71-30.7ZM425.96-34.4Q432.16-34.4 435.41-31.75 438.66-29.1 438.66-23.8L438.66-23.8Q438.66-18.2 435.33-15.48 432.01-12.75 426.11-12.75L426.11-12.75 422.81-12.75 422.81 0 418.16 0 418.16-34.4 425.96-34.4ZM425.96-16.35Q429.91-16.35 431.86-18 433.81-19.65 433.81-23.75L433.81-23.75Q433.81-27.5 431.88-29.18 429.96-30.85 426.01-30.85L426.01-30.85 422.81-30.85 422.81-16.35 425.96-16.35ZM452.1-34.4Q458.3-34.4 461.55-31.75 464.8-29.1 464.8-23.8L464.8-23.8Q464.8-18.2 461.48-15.48 458.15-12.75 452.25-12.75L452.25-12.75 448.95-12.75 448.95 0 444.3 0 444.3-34.4 452.1-34.4ZM452.1-16.35Q456.05-16.35 458-18 459.95-19.65 459.95-23.75L459.95-23.75Q459.95-27.5 458.03-29.18 456.1-30.85 452.15-30.85L452.15-30.85 448.95-30.85 448.95-16.35 452.1-16.35ZM503.65-34.4L503.65-10.1Q503.65-5.35 500.8-2.35 497.95 0.65 492.65 0.65L492.65 0.65Q487.3 0.65 484.5-2.33 481.7-5.3 481.7-10.1L481.7-10.1 481.7-34.4 486.35-34.4 486.35-10.4Q486.35-3.15 492.65-3.15L492.65-3.15Q498.95-3.15 498.95-10.4L498.95-10.4 498.95-34.4 503.65-34.4ZM519.75-35.05Q522.8-35.05 525.07-34.05 527.35-33.05 529.35-31.05L529.35-31.05 527-28.4Q525.3-29.9 523.62-30.63 521.95-31.35 520-31.35L520-31.35Q517.5-31.35 515.97-29.98 514.45-28.6 514.45-26.35L514.45-26.35Q514.45-24.85 515.05-23.78 515.64-22.7 517.1-21.83 518.55-20.95 521.2-20.05L521.2-20.05Q524.25-18.95 526.2-17.7 528.14-16.45 529.2-14.5 530.25-12.55 530.25-9.6L530.25-9.6Q530.25-6.65 528.89-4.33 527.55-2 525.02-0.68 522.5 0.65 519.1 0.65L519.1 0.65Q512.85 0.65 508.45-3.85L508.45-3.85 510.9-6.5Q512.75-4.85 514.67-3.98 516.6-3.1 518.95-3.1L518.95-3.1Q521.89-3.1 523.67-4.78 525.45-6.45 525.45-9.4L525.45-9.4Q525.45-11.95 524.02-13.45 522.6-14.95 518.8-16.25L518.8-16.25Q513.95-17.95 511.82-20.2 509.7-22.45 509.7-26.05L509.7-26.05Q509.7-28.6 510.97-30.68 512.25-32.75 514.55-33.9 516.85-35.05 519.75-35.05L519.75-35.05ZM536.39-34.4L541.04-34.4 541.04 0 536.39 0 536.39-34.4ZM571.34-34.4L571.34 0 565.34 0 553.09-29.55Q553.69-22.95 553.69-16.7L553.69-16.7 553.69 0 549.49 0 549.49-34.4 555.44-34.4 567.74-4.8Q567.54-6.55 567.31-9.6 567.09-12.65 567.09-15.65L567.09-15.65 567.09-34.4 571.34-34.4ZM591.79-35.05Q594.69-35.05 596.86-34.13 599.04-33.2 601.14-31.3L601.14-31.3 598.64-28.7Q596.94-30.1 595.39-30.73 593.84-31.35 591.89-31.35L591.89-31.35Q587.99-31.35 585.49-28.03 582.99-24.7 582.99-17.25L582.99-17.25Q582.99-9.65 585.09-6.38 587.19-3.1 591.39-3.1L591.39-3.1Q594.49-3.1 596.99-4.6L596.99-4.6 596.99-15.35 591.74-15.35 591.24-19 601.49-19 601.49-2.45Q596.74 0.65 591.39 0.65L591.39 0.65Q584.99 0.65 581.54-3.83 578.09-8.3 578.09-17.3L578.09-17.3Q578.09-23.1 579.94-27.1 581.79-31.1 584.91-33.08 588.04-35.05 591.79-35.05L591.79-35.05ZM636.43-34.4L641.03-34.4 631.53 0 625.98 0 616.33-34.4 621.13-34.4 628.83-4.5 636.43-34.4ZM645.68-34.4L650.33-34.4 650.33 0 645.68 0 645.68-34.4ZM684.68-34.4L687.33 0 682.88 0 681.83-15.55Q681.13-26 681.08-29.95L681.08-29.95 674.48-3.9 670.13-3.9 663.23-29.95Q663.28-25.6 662.68-15.45L662.68-15.45 661.68 0 657.28 0 659.93-34.4 665.98-34.4 672.38-8.95 678.53-34.4 684.68-34.4ZM706.07-34.4L710.72-34.4 710.72 0 706.07 0 706.07-34.4ZM722.67-34.4L727.62-34.4 715.97-18.7 728.42 0 723.07 0 710.92-18.4 722.67-34.4ZM732.52-34.4L749.62-34.4 749.07-30.8 737.17-30.8 737.17-19.45 747.52-19.45 747.52-15.85 737.17-15.85 737.17-3.65 749.77-3.65 749.77 0 732.52 0 732.52-34.4ZM771.57-34.4L776.42-34.4 766.52-13.25 766.52 0 761.82 0 761.82-13.2 751.92-34.4 756.92-34.4 764.27-17.2 771.57-34.4ZM806.76-34.4L809.41 0 804.96 0 803.91-15.55Q803.21-26 803.16-29.95L803.16-29.95 796.56-3.9 792.21-3.9 785.31-29.95Q785.36-25.6 784.76-15.45L784.76-15.45 783.76 0 779.36 0 782.01-34.4 788.06-34.4 794.46-8.95 800.61-34.4 806.76-34.4ZM838.11 0L833.31 0 831.01-8.75 819.46-8.75 817.16 0 812.51 0 822.46-34.4 828.16-34.4 838.11 0ZM825.26-30.7L820.41-12.4 830.06-12.4 825.26-30.7ZM850.51-34.4Q856.71-34.4 859.96-31.75 863.21-29.1 863.21-23.8L863.21-23.8Q863.21-18.2 859.88-15.48 856.56-12.75 850.66-12.75L850.66-12.75 847.36-12.75 847.36 0 842.71 0 842.71-34.4 850.51-34.4ZM850.51-16.35Q854.46-16.35 856.41-18 858.36-19.65 858.36-23.75L858.36-23.75Q858.36-27.5 856.43-29.18 854.51-30.85 850.56-30.85L850.56-30.85 847.36-30.85 847.36-16.35 850.51-16.35Z" opacity="1" transform="matrix(1,0,0,1,0,0)" fill="#ffffff" class="slogan-text-1" data-fill-palette-color="quaternary" id="text-1"></path></svg></g></svg></g></svg></g></svg></g><g transform="matrix(1,0,0,1,69.6391440961745,0)"><svg viewBox="0 0 73.88015303480812 69.05790673673948" height="69.05790673673948" width="73.88015303480812"><g><svg xmlns="http://www.w3.org/2000/svg" xmlns:xlink="http://www.w3.org/1999/xlink" version="1.1" x="0" y="0" viewBox="0.19899940490722656 2.741999626159668 89.57144165039062 83.72500610351562" enable-background="new 0 0 90 90" xml:space="preserve" width="73.88015303480812" height="69.05790673673948" class="icon-icon-0" data-fill-palette-color="quaternary" id="icon-0"><g fill="#ffffff" data-fill-palette-color="quaternary"></g><g fill="#ffffff" data-fill-palette-color="quaternary"><path d="M88.446 13.096l-3.502-3.502c-1.622-1.622-4.122-1.775-5.556-0.341L67.41 21.23V10.877c0-4.486-3.649-8.135-8.135-8.135H8.334c-4.486 0-8.135 3.649-8.135 8.135v67.454c0 4.486 3.649 8.136 8.135 8.136h50.941c4.485 0 8.135-3.649 8.135-8.136V40.006l21.377-21.354C90.223 17.218 90.067 14.717 88.446 13.096zM62.205 78.331c0 1.616-1.313 2.931-2.93 2.931H8.334c-1.617 0-2.93-1.314-2.93-2.931V10.877c0-1.616 1.313-2.93 2.93-2.93h50.941c1.616 0 2.93 1.314 2.93 2.93v15.558L46.572 42.069l9.381 9.383 6.252-6.246V78.331z" fill="#ffffff" data-fill-palette-color="quaternary"></path><path d="M41.052 54.433c-0.602 1.988 0.534 3.129 2.527 2.528l9.843-2.976-9.384-9.38L41.052 54.433z" fill="#ffffff" data-fill-palette-color="quaternary"></path><path d="M12.643 23.062h40.665c1.436 0 2.603-1.165 2.603-2.603 0-1.437-1.167-2.603-2.603-2.603H12.643c-1.438 0-2.603 1.166-2.603 2.603C10.04 21.897 11.205 23.062 12.643 23.062z" fill="#ffffff" data-fill-palette-color="quaternary"></path><path d="M53.308 65.68H12.643c-1.438 0-2.603 1.164-2.603 2.603 0 1.436 1.165 2.603 2.603 2.603h40.665c1.436 0 2.603-1.167 2.603-2.603C55.91 66.844 54.743 65.68 53.308 65.68z" fill="#ffffff" data-fill-palette-color="quaternary"></path><path d="M12.643 39.002h25.604c1.436 0 2.603-1.165 2.603-2.603 0-1.437-1.167-2.603-2.603-2.603H12.643c-1.438 0-2.603 1.166-2.603 2.603C10.04 37.837 11.205 39.002 12.643 39.002z" fill="#ffffff" data-fill-palette-color="quaternary"></path><path d="M12.643 54.944h20.82c1.437 0 2.603-1.167 2.603-2.603 0-1.439-1.166-2.603-2.603-2.603h-20.82c-1.438 0-2.603 1.163-2.603 2.603C10.04 53.777 11.205 54.944 12.643 54.944z" fill="#ffffff" data-fill-palette-color="quaternary"></path></g></svg></g></svg></g><g></g></svg></g></svg></g></svg></g></svg></g><defs></defs></svg><rect width="342.85155851775386" height="342.85155851775386" fill="none" stroke="none" visibility="hidden"></rect></g></svg></g></svg>