<svg width="18" height="17" viewBox="0 0 18 17" fill="none" xmlns="http://www.w3.org/2000/svg">
<path d="M17.1303 16.8582C17.596 17.2956 18.3149 16.6205 17.8491 16.1926L14.0525 12.6175C15.3383 11.2768 16.1179 9.5083 16.1179 7.5686C16.1179 3.39446 12.5035 0 8.05894 0C3.61438 0 0 3.39446 0 7.5686C0 11.7427 3.61438 15.1372 8.05894 15.1372C10.0636 15.1372 11.9163 14.4431 13.3337 13.2926L17.1303 16.8582ZM1.01142 7.5686C1.01142 3.91742 4.18032 0.95083 8.05793 0.95083C11.9457 0.95083 15.1044 3.91742 15.1044 7.5686C15.1044 11.2198 11.9457 14.1864 8.05793 14.1864C4.18032 14.1864 1.01142 11.2198 1.01142 7.5686Z" fill="#878A8C" fill-opacity="0.5"/>
</svg>
