<svg width="1236" height="1080" viewBox="0 0 900 600" fill="none" xmlns="http://www.w3.org/2000/svg">
<g clip-path="url(#clip0_42_251)">
<path d="M0 795.2L17.1667 803.68C34.3333 812.32 68.6667 829.28 103 833.12C137.333 836.8 171.667 827.2 206 824.8C240.333 822.4 274.667 827.2 309 826.4C343.333 825.6 377.667 819.2 412 820.48C446.333 821.92 480.667 830.88 515 840.8C549.333 850.72 583.667 861.28 618 862.88C652.333 864.48 686.667 857.12 721 844C755.333 830.88 789.667 812.32 824 802.4C858.333 792.48 892.667 791.52 927 803.68C961.333 816 995.667 841.6 1030 846.72C1064.33 851.68 1098.67 836.32 1133 839.52C1167.33 842.72 1201.67 864.48 1218.83 875.52L1236 886.4V1081.6H1218.83C1201.67 1081.6 1167.33 1081.6 1133 1081.6C1098.67 1081.6 1064.33 1081.6 1030 1081.6C995.667 1081.6 961.333 1081.6 927 1081.6C892.667 1081.6 858.333 1081.6 824 1081.6C789.667 1081.6 755.333 1081.6 721 1081.6C686.667 1081.6 652.333 1081.6 618 1081.6C583.667 1081.6 549.333 1081.6 515 1081.6C480.667 1081.6 446.333 1081.6 412 1081.6C377.667 1081.6 343.333 1081.6 309 1081.6C274.667 1081.6 240.333 1081.6 206 1081.6C171.667 1081.6 137.333 1081.6 103 1081.6C68.6667 1081.6 34.3333 1081.6 17.1667 1081.6H0V795.2Z" fill="#6B7FF2"/>
<path d="M0 851.2L17.1667 852.8C34.3333 854.4 68.6667 857.6 103 867.68C137.333 877.92 171.667 894.88 206 894.88C240.333 894.88 274.667 877.92 309 878.4C343.333 878.88 377.667 897.12 412 905.12C446.333 913.12 480.667 910.88 515 913.92C549.333 916.8 583.667 924.8 618 916.8C652.333 908.8 686.667 884.8 721 872.32C755.333 859.68 789.667 858.72 824 872.32C858.333 885.92 892.667 914.08 927 924.8C961.333 935.52 995.667 928.48 1030 914.88C1064.33 901.28 1098.67 881.12 1133 883.52C1167.33 885.92 1201.67 910.88 1218.83 923.52L1236 936V1081.6H1218.83C1201.67 1081.6 1167.33 1081.6 1133 1081.6C1098.67 1081.6 1064.33 1081.6 1030 1081.6C995.667 1081.6 961.333 1081.6 927 1081.6C892.667 1081.6 858.333 1081.6 824 1081.6C789.667 1081.6 755.333 1081.6 721 1081.6C686.667 1081.6 652.333 1081.6 618 1081.6C583.667 1081.6 549.333 1081.6 515 1081.6C480.667 1081.6 446.333 1081.6 412 1081.6C377.667 1081.6 343.333 1081.6 309 1081.6C274.667 1081.6 240.333 1081.6 206 1081.6C171.667 1081.6 137.333 1081.6 103 1081.6C68.6667 1081.6 34.3333 1081.6 17.1667 1081.6H0V851.2Z" fill="#5667BD"/>
<path d="M0 992L17.1667 981.28C34.3333 970.72 68.6667 949.28 103 946.4C137.333 943.52 171.667 958.88 206 969.12C240.333 979.2 274.667 984 309 974.72C343.333 965.28 377.667 941.92 412 933.28C446.333 924.8 480.667 931.2 515 939.2C549.333 947.2 583.667 956.8 618 962.88C652.333 969.12 686.667 971.68 721 966.08C755.333 960.48 789.667 946.72 824 950.4C858.333 954.08 892.667 975.52 927 976.8C961.333 978.08 995.667 959.52 1030 948.48C1064.33 937.6 1098.67 934.4 1133 933.6C1167.33 932.8 1201.67 934.4 1218.83 935.2L1236 936V1081.6H1218.83C1201.67 1081.6 1167.33 1081.6 1133 1081.6C1098.67 1081.6 1064.33 1081.6 1030 1081.6C995.667 1081.6 961.333 1081.6 927 1081.6C892.667 1081.6 858.333 1081.6 824 1081.6C789.667 1081.6 755.333 1081.6 721 1081.6C686.667 1081.6 652.333 1081.6 618 1081.6C583.667 1081.6 549.333 1081.6 515 1081.6C480.667 1081.6 446.333 1081.6 412 1081.6C377.667 1081.6 343.333 1081.6 309 1081.6C274.667 1081.6 240.333 1081.6 206 1081.6C171.667 1081.6 137.333 1081.6 103 1081.6C68.6667 1081.6 34.3333 1081.6 17.1667 1081.6H0V992Z" fill="#434F8A"/>
<path d="M0 1030.4L17.1667 1024.32C34.3333 1018.08 68.6667 1005.92 103 997.92C137.333 989.92 171.667 986.08 206 986.72C240.333 987.2 274.667 992 309 992.8C343.333 993.6 377.667 990.4 412 997.28C446.333 1004.32 480.667 1021.28 515 1031.68C549.333 1042.08 583.667 1045.92 618 1047.52C652.333 1049.12 686.667 1048.48 721 1044.8C755.333 1041.12 789.667 1034.08 824 1024.48C858.333 1014.88 892.667 1002.72 927 994.72C961.333 986.72 995.667 982.88 1030 988.48C1064.33 994.08 1098.67 1009.12 1133 1020C1167.33 1030.88 1201.67 1037.92 1218.83 1041.28L1236 1044.8V1081.6H1218.83C1201.67 1081.6 1167.33 1081.6 1133 1081.6C1098.67 1081.6 1064.33 1081.6 1030 1081.6C995.667 1081.6 961.333 1081.6 927 1081.6C892.667 1081.6 858.333 1081.6 824 1081.6C789.667 1081.6 755.333 1081.6 721 1081.6C686.667 1081.6 652.333 1081.6 618 1081.6C583.667 1081.6 549.333 1081.6 515 1081.6C480.667 1081.6 446.333 1081.6 412 1081.6C377.667 1081.6 343.333 1081.6 309 1081.6C274.667 1081.6 240.333 1081.6 206 1081.6C171.667 1081.6 137.333 1081.6 103 1081.6C68.6667 1081.6 34.3333 1081.6 17.1667 1081.6H0V1030.4Z" fill="#323859"/>
</g>
<defs>
<clipPath id="clip0_42_251">
<rect width="1236" height="1080" fill="white"/>
</clipPath>
</defs>
</svg>
