<svg width="1272" height="1116" viewBox="0 0 1272 1116" fill="none" xmlns="http://www.w3.org/2000/svg">
<g filter="url(#filter0_d_26_176)">
<g filter="url(#filter1_d_26_176)">
<path d="M1038.84 204.5C1050.84 83.8046 1206.21 70 1259 28V1108H23V992.339C26.1721 984.996 55.0093 986.018 138.315 961.797C182.4 948.979 264.406 998.5 330.069 907.5C395.731 816.5 499.892 764.789 522.872 763C677.05 751 716.641 648.5 767.819 529C818.997 409.5 1021.88 374.962 1038.84 204.5Z" fill="#6B7FF2"/>
</g>
<g filter="url(#filter2_d_26_176)">
<path d="M960.04 452.34C1100.04 365.35 1155.26 98.9104 1259 114.32V1108H23C71.7112 1100.54 175.604 1078.77 201.484 1051.33C233.834 1017.03 392.796 908.17 678.37 829.63C963.944 751.09 690.086 620.081 960.04 452.34Z" fill="#323C73"/>
</g>
<g filter="url(#filter3_d_26_176)">
<path d="M1081.59 485.568C1149.03 295.639 1227.96 211.114 1259 192.593V1108H334.198C368.799 1091.35 446.181 1049.63 478.895 1015.95C519.787 973.86 768.289 902.019 915.502 813.341C1062.72 724.663 997.287 722.979 1081.59 485.568Z" fill="#4F5EB3" fill-opacity="0.29" shape-rendering="crispEdges"/>
</g>
</g>
<defs>
<filter id="filter0_d_26_176" x="19" y="28" width="1244" height="1088" filterUnits="userSpaceOnUse" color-interpolation-filters="sRGB">
<feFlood flood-opacity="0" result="BackgroundImageFix"/>
<feColorMatrix in="SourceAlpha" type="matrix" values="0 0 0 0 0 0 0 0 0 0 0 0 0 0 0 0 0 0 127 0" result="hardAlpha"/>
<feOffset dy="4"/>
<feGaussianBlur stdDeviation="2"/>
<feComposite in2="hardAlpha" operator="out"/>
<feColorMatrix type="matrix" values="0 0 0 0 0 0 0 0 0 0 0 0 0 0 0 0 0 0 0.25 0"/>
<feBlend mode="normal" in2="BackgroundImageFix" result="effect1_dropShadow_26_176"/>
<feBlend mode="normal" in="SourceGraphic" in2="effect1_dropShadow_26_176" result="shape"/>
</filter>
<filter id="filter1_d_26_176" x="0" y="0" width="1272" height="1116" filterUnits="userSpaceOnUse" color-interpolation-filters="sRGB">
<feFlood flood-opacity="0" result="BackgroundImageFix"/>
<feColorMatrix in="SourceAlpha" type="matrix" values="0 0 0 0 0 0 0 0 0 0 0 0 0 0 0 0 0 0 127 0" result="hardAlpha"/>
<feOffset dx="-5" dy="-10"/>
<feGaussianBlur stdDeviation="9"/>
<feComposite in2="hardAlpha" operator="out"/>
<feColorMatrix type="matrix" values="0 0 0 0 0 0 0 0 0 0 0 0 0 0 0 0 0 0 0.25 0"/>
<feBlend mode="normal" in2="BackgroundImageFix" result="effect1_dropShadow_26_176"/>
<feBlend mode="normal" in="SourceGraphic" in2="effect1_dropShadow_26_176" result="shape"/>
</filter>
<filter id="filter2_d_26_176" x="0" y="85.6785" width="1272" height="1030.32" filterUnits="userSpaceOnUse" color-interpolation-filters="sRGB">
<feFlood flood-opacity="0" result="BackgroundImageFix"/>
<feColorMatrix in="SourceAlpha" type="matrix" values="0 0 0 0 0 0 0 0 0 0 0 0 0 0 0 0 0 0 127 0" result="hardAlpha"/>
<feOffset dx="-5" dy="-10"/>
<feGaussianBlur stdDeviation="9"/>
<feComposite in2="hardAlpha" operator="out"/>
<feColorMatrix type="matrix" values="0 0 0 0 0 0 0 0 0 0 0 0 0 0 0 0 0 0 0.25 0"/>
<feBlend mode="normal" in2="BackgroundImageFix" result="effect1_dropShadow_26_176"/>
<feBlend mode="normal" in="SourceGraphic" in2="effect1_dropShadow_26_176" result="shape"/>
</filter>
<filter id="filter3_d_26_176" x="311.198" y="164.593" width="960.802" height="951.407" filterUnits="userSpaceOnUse" color-interpolation-filters="sRGB">
<feFlood flood-opacity="0" result="BackgroundImageFix"/>
<feColorMatrix in="SourceAlpha" type="matrix" values="0 0 0 0 0 0 0 0 0 0 0 0 0 0 0 0 0 0 127 0" result="hardAlpha"/>
<feOffset dx="-5" dy="-10"/>
<feGaussianBlur stdDeviation="9"/>
<feComposite in2="hardAlpha" operator="out"/>
<feColorMatrix type="matrix" values="0 0 0 0 0 0 0 0 0 0 0 0 0 0 0 0 0 0 0.25 0"/>
<feBlend mode="normal" in2="BackgroundImageFix" result="effect1_dropShadow_26_176"/>
<feBlend mode="normal" in="SourceGraphic" in2="effect1_dropShadow_26_176" result="shape"/>
</filter>
</defs>
</svg>
